<svg t="1769072691784" class="icon" viewBox="0 0 1024 1024" version="1.1" xmlns="http://www.w3.org/2000/svg" p-id="3041" width="64" height="64" xmlns:xlink="http://www.w3.org/1999/xlink"><path d="M778.24 184.32a81.92 81.92 0 0 1 81.92 81.92v348.16a81.92 81.92 0 0 1-81.92 81.92H542.72v81.92h92.16a30.72 30.72 0 0 1 0 61.44H389.12a30.72 30.72 0 0 1 0-61.44h92.16v-81.92H245.76a81.92 81.92 0 0 1-81.92-81.92V266.24a81.92 81.92 0 0 1 81.92-81.92h532.48z m20.48 373.76H225.28V614.4a20.48 20.48 0 0 0 20.48 20.48h532.48a20.48 20.48 0 0 0 20.48-20.48v-56.32zM778.24 245.76H245.76a20.48 20.48 0 0 0-20.48 20.48v230.4h573.44V266.24a20.48 20.48 0 0 0-20.48-20.48z" fill="#1296db" p-id="3042"></path></svg>