<svg t="1770547389781" class="icon" viewBox="0 0 1188 1024" version="1.1" xmlns="http://www.w3.org/2000/svg" p-id="7054" width="64" height="64"><path d="M1187.643347 819.621399H0V0h1187.643347zM1117.410151 70.233196H70.233196v679.155007h1047.176955" p-id="7055" fill="#000000"></path><path d="M263.374486 503.572016a35.116598 35.116598 0 0 1-24.581619-60.400548L422.803841 266.886145a35.116598 35.116598 0 0 1 47.056241 0l180.499314 155.917696 200.164609-152.406036a35.327298 35.327298 0 1 1 42.84225 56.186557L670.024691 495.846365a35.116598 35.116598 0 0 1-44.246913 0L448.087791 339.928669 287.253772 493.739369a35.116598 35.116598 0 0 1-23.879286 9.832647zM257.75583 930.589849h702.331961v93.410151h-702.331961z" p-id="7056" fill="#000000"></path></svg>