<svg t="1770545088394" class="icon" viewBox="0 0 1024 1024" version="1.1" xmlns="http://www.w3.org/2000/svg" p-id="6845" width="64" height="64"><path d="M512 0c282.7776 0 512 229.2224 512 512 0 282.7776-229.2224 512-512 512C229.2224 1024 0 794.7776 0 512 0 229.2224 229.2224 0 512 0z m0 51.2C257.501867 51.2 51.2 257.501867 51.2 512s206.301867 460.8 460.8 460.8 460.8-206.301867 460.8-460.8S766.498133 51.2 512 51.2z m-21.5552 479.419733l269.909333 1.774934v232.738133l-269.909333-33.6896V530.602667z m-234.325333-1.518933l196.778666 1.262933v196.4032l-196.778666-24.593066v-173.056z m196.778666-234.120533V491.349333l-196.778666 1.262934V319.505067l196.778666-24.5248z m307.456-38.434134v232.738134l-269.909333 1.757866V290.235733l269.909333-33.6896z" fill="#323132" p-id="6846"></path></svg>