<svg t="1770113508179" class="icon" viewBox="0 0 1024 1024" version="1.1" xmlns="http://www.w3.org/2000/svg" p-id="5102" width="64" height="64"><path d="M490.304 334.784l-161.92 85.76a20.032 20.032 0 0 0-4.48 3.072 21.12 21.12 0 0 0-4.8 6.016 22.592 22.592 0 0 0-2.88 11.136v146.432a22.592 22.592 0 0 0 8.192 17.536c0.32 0.32 0.64 0.64 1.024 0.832l161.92 120.064a27.52 27.52 0 0 0 5.632 3.008 20.096 20.096 0 0 0 5.312 1.28l0.896 0.128a21.632 21.632 0 0 0 4.544-0.128c0.32 0 0.64 0 0.896-0.128a21.12 21.12 0 0 0 7.68-2.688 19.456 19.456 0 0 0 2.304-1.472l161.92-120.064a25.856 25.856 0 0 0 4.736-4.672 19.712 19.712 0 0 0 2.688-4.608 17.92 17.92 0 0 0 1.28-3.84 22.848 22.848 0 0 0 0.64-5.248V440.768v-0.832l-0.128-0.768V438.4a15.68 15.68 0 0 0-0.384-2.304c0-0.256-0.128-0.512-0.192-0.704l-0.192-0.768a29.248 29.248 0 0 0-2.432-5.696 24.576 24.576 0 0 0-3.328-4.288l-0.512-0.512a20.992 20.992 0 0 0-5.056-3.648l-161.92-85.696a22.144 22.144 0 0 0-12.16-2.56 22.912 22.912 0 0 0-9.28 2.56z m21.376-23.936l183.68 96.64a25.856 25.856 0 0 1 5.632 4.16 23.104 23.104 0 0 1 1.024 1.152l0.512 0.576a23.296 23.296 0 0 1 0.448 0.64l0.448 0.64a23.424 23.424 0 0 1 4.16 13.056v170.24a23.296 23.296 0 0 1-6.336 15.808 26.24 26.24 0 0 1-3.008 2.688l-183.68 135.296a19.008 19.008 0 0 1-3.84 2.368 20.288 20.288 0 0 1-5.248 1.664 14.08 14.08 0 0 1-1.792 0.32 21.632 21.632 0 0 1-1.792 0.128h-0.896a42.944 42.944 0 0 1-3.648-0.256 14.464 14.464 0 0 1-2.624-0.64 37.888 37.888 0 0 1-3.392-1.28 19.648 19.648 0 0 1-3.904-2.304l-183.68-135.296a22.976 22.976 0 0 1-9.28-18.432v-170.24a22.464 22.464 0 0 1 5.568-15.04 22.144 22.144 0 0 1 6.656-5.248l183.68-96.64a23.488 23.488 0 0 1 14.784-2.304 23.488 23.488 0 0 1 6.528 2.24z" fill="#000000" p-id="5103"></path><path d="M500.992 759.936a22.72 22.72 0 0 1-12.416-3.584 24.448 24.448 0 0 1-1.536-1.024L303.36 619.968a24.32 24.32 0 0 1-8.128-10.88 24.064 24.064 0 0 1-1.408-8.128V430.72a25.6 25.6 0 0 1 1.6-8.576 24.576 24.576 0 0 1 6.4-9.088 24.768 24.768 0 0 1 4.544-3.2l183.68-96.64a22.784 22.784 0 0 1 12.416-2.688 24.448 24.448 0 0 1 9.6 2.688l183.68 96.64a34.56 34.56 0 0 1 3.328 2.176l0.64 0.512 0.64 0.512a23.424 23.424 0 0 1 3.712 4.16l0.448 0.64a104.256 104.256 0 0 1 1.536 2.816 16 16 0 0 1 0.32 0.704l0.32 0.768a30.848 30.848 0 0 1 0.256 0.704l0.256 0.768a30.976 30.976 0 0 1 0.448 1.536l0.128 0.768a33.28 33.28 0 0 1 0.32 1.6l0.064 0.768a16.64 16.64 0 0 1 0.128 2.432v170.24a24.832 24.832 0 0 1-2.56 10.688 21.952 21.952 0 0 1-6.08 7.488 21.504 21.504 0 0 1-1.088 0.832l-183.68 135.36a24.512 24.512 0 0 1-12.032 4.48l-1.856 0.128z m0-448.128a21.952 21.952 0 0 0-10.368 2.56l-183.68 96.64a21.44 21.44 0 0 0-8.704 8.192 22.208 22.208 0 0 0-3.2 11.52v170.24a23.104 23.104 0 0 0 3.712 12.288 23.296 23.296 0 0 0 5.312 5.632l183.68 135.36a27.968 27.968 0 0 0 4.608 2.56 19.2 19.2 0 0 0 5.12 1.536 20.288 20.288 0 0 0 4.352 0.256l0.896-0.064a20.224 20.224 0 0 0 6.016-1.344 19.52 19.52 0 0 0 5.44-2.944l183.68-135.296a20.8 20.8 0 0 0 5.376-5.632 23.424 23.424 0 0 0 3.52-9.664 29.12 29.12 0 0 0 0.128-2.56V430.72v-0.768a29.696 29.696 0 0 0-0.128-1.536l-0.064-0.704a14.784 14.784 0 0 0-0.448-2.24 390.208 390.208 0 0 0-0.896-2.88 14.848 14.848 0 0 0-0.256-0.704l-0.32-0.64a25.728 25.728 0 0 0-2.368-3.904l-0.448-0.64a22.144 22.144 0 0 0-0.96-1.152l-0.576-0.512a23.552 23.552 0 0 0-1.664-1.536l-0.64-0.448a21.312 21.312 0 0 0-3.136-2.048l-183.68-96.64a22.208 22.208 0 0 0-10.24-2.56z m0 421.952a26.24 26.24 0 0 1-7.36-1.216 24.32 24.32 0 0 1-6.656-3.456L325.12 609.088a24.512 24.512 0 0 1-7.552-9.6 23.04 23.04 0 0 1-1.92-9.28V443.776a25.408 25.408 0 0 1 1.6-8.576 22.4 22.4 0 0 1 5.76-8.576 26.24 26.24 0 0 1 5.12-3.648l161.92-85.76a23.424 23.424 0 0 1 22.016 0l161.92 85.76a21.568 21.568 0 0 1 2.112 1.152l0.64 0.448a15.36 15.36 0 0 1 1.92 1.536 26.176 26.176 0 0 1 4.928 6.144 16.192 16.192 0 0 1 1.344 2.88 28.992 28.992 0 0 1 1.408 5.376 32.96 32.96 0 0 1 0.192 1.6V590.144a24.512 24.512 0 0 1-3.84 12.992 21.312 21.312 0 0 1-4.608 5.12 22.528 22.528 0 0 1-1.024 0.832l-161.92 120a24.704 24.704 0 0 1-10.304 4.352 22.848 22.848 0 0 1-3.776 0.32z m-10.688-395.968l0.32 0.512-161.984 85.76a25.408 25.408 0 0 0-5.44 4.032 26.112 26.112 0 0 0-3.584 4.8 22.784 22.784 0 0 0-2.816 10.88V590.08a22.464 22.464 0 0 0 8.96 17.92l161.92 120a18.624 18.624 0 0 0 3.84 2.304 19.456 19.456 0 0 0 5.888 1.792l0.896 0.128 0.896 0.128a20.48 20.48 0 0 0 8.704-1.088A35.84 35.84 0 0 0 512 729.6a18.048 18.048 0 0 0 2.176-1.472l161.92-120a24.384 24.384 0 0 0 5.376-5.632 24.448 24.448 0 0 0 3.072-7.104 21.376 21.376 0 0 0 0.64-5.12V443.648l-0.064-0.768a14.848 14.848 0 0 0-0.192-2.24 14.528 14.528 0 0 0-0.448-2.24l-0.128-0.704a14.72 14.72 0 0 0-1.024-2.816 144.704 144.704 0 0 0-1.408-2.688 14.4 14.4 0 0 0-1.28-1.92 14.208 14.208 0 0 0-1.408-1.728 38.912 38.912 0 0 0-2.752-2.56 20.16 20.16 0 0 0-3.2-1.984l-161.856-85.76a22.464 22.464 0 0 0-20.8 0l-0.32-0.512z" fill="#000000" p-id="5104"></path><path d="M500.992 773.44a37.504 37.504 0 0 1-21.952-7.296l-183.68-135.296a38.72 38.72 0 0 1-11.072-13.184 37.888 37.888 0 0 1-3.968-16.64V430.72a37.44 37.44 0 0 1 11.648-26.944 43.072 43.072 0 0 1 7.04-5.248 35.328 35.328 0 0 1 1.088-0.64l183.68-96.64a32.512 32.512 0 0 1 8.384-3.2 37.504 37.504 0 0 1 26.112 3.2l183.68 96.768a36.672 36.672 0 0 1 19.776 32.768v170.24a30.464 30.464 0 0 1-0.64 6.4 56.64 56.64 0 0 1-0.384 2.112l-0.256 1.024a30.08 30.08 0 0 1-2.24 6.144 28.928 28.928 0 0 1-3.264 5.568 27.52 27.52 0 0 1-3.456 4.224 39.168 39.168 0 0 1-1.536 1.472l-0.768 0.768-0.832 0.64a38.912 38.912 0 0 1-1.728 1.408l-183.68 135.36a34.752 34.752 0 0 1-13.184 6.208 36.864 36.864 0 0 1-8.768 1.088z m-4.096-423.168L335.04 435.968a8.64 8.64 0 0 0-4.544 6.528 8.96 8.96 0 0 0-0.128 1.152v146.496a8.96 8.96 0 0 0 3.584 7.04l161.92 120a9.984 9.984 0 0 0 2.432 1.28 8.128 8.128 0 0 0 4.16 0.32 8.32 8.32 0 0 0 3.84-1.6l161.92-120a7.872 7.872 0 0 0 1.472-1.408 8.704 8.704 0 0 0 2.048-5.632V443.648v-0.576-0.576a8.96 8.96 0 0 0-3.648-5.888 6.656 6.656 0 0 0-0.96-0.64l-162.048-85.76a8.96 8.96 0 0 0-5.632-0.832 9.088 9.088 0 0 0-2.56 0.896z" fill="#000000" p-id="5105"></path><path d="M501.056 774.08a38.784 38.784 0 0 1-17.28-4.224 36.8 36.8 0 0 1-5.12-3.2L295.04 631.36a37.184 37.184 0 0 1-14.72-23.808 38.528 38.528 0 0 1-0.576-6.592V430.72a38.656 38.656 0 0 1 5.44-19.52 37.888 37.888 0 0 1 14.72-13.824l183.68-96.64a36.992 36.992 0 0 1 25.472-3.52 34.88 34.88 0 0 1 9.6 3.456l183.68 96.64a31.552 31.552 0 0 1 6.4 4.288 45.504 45.504 0 0 1 6.208 6.4 35.648 35.648 0 0 1 6.144 12.608 41.408 41.408 0 0 1 1.024 4.992l0.192 1.28a42.752 42.752 0 0 1 0.192 3.84v170.24a31.552 31.552 0 0 1-0.832 7.68 30.72 30.72 0 0 1-1.92 6.272 30.4 30.4 0 0 1-2.944 5.888 29.888 29.888 0 0 1-3.968 5.312 27.712 27.712 0 0 1-3.968 3.84 40.512 40.512 0 0 1-1.728 1.28l-183.68 135.424a35.584 35.584 0 0 1-13.44 6.4 38.144 38.144 0 0 1-8.96 1.024z m0-476.416a36.16 36.16 0 0 0-16.96 4.16l-183.68 96.64a34.24 34.24 0 0 0-10.624 8.448 33.92 33.92 0 0 0-6.784 11.648 35.904 35.904 0 0 0-2.048 12.16v170.24a36.8 36.8 0 0 0 14.72 29.312l183.744 135.296a31.232 31.232 0 0 0 7.488 4.352 34.176 34.176 0 0 0 14.08 2.816 27.2 27.2 0 0 0 5.76-0.448 35.968 35.968 0 0 0 15.808-6.656l183.744-135.296a56.96 56.96 0 0 0 4.032-3.52 41.728 41.728 0 0 0 4.096-4.864l0.64-0.896a27.328 27.328 0 0 0 2.56-4.608 50.88 50.88 0 0 0 2.176-6.016 54.08 54.08 0 0 0 1.024-5.184l0.128-1.088a29.504 29.504 0 0 0 0.128-3.2V430.72a39.744 39.744 0 0 0-1.664-10.944 25.92 25.92 0 0 0-1.792-4.608 37.76 37.76 0 0 0-9.792-12.544 40.64 40.64 0 0 0-6.208-4.096l-183.68-96.64a36.352 36.352 0 0 0-16.896-4.224z m0 421.952a10.624 10.624 0 0 1-3.008-0.448 9.792 9.792 0 0 1-2.624-1.408L333.504 597.76a9.6 9.6 0 0 1-3.84-6.464 9.216 9.216 0 0 1 0-1.088V443.776a9.6 9.6 0 0 1 2.048-5.952 9.344 9.344 0 0 1 2.944-2.368l161.92-85.76a9.792 9.792 0 0 1 4.416-1.088 9.536 9.536 0 0 1 4.416 1.088l161.92 85.76a9.408 9.408 0 0 1 4.992 8.32V590.72l-0.064 0.576a15.168 15.168 0 0 1-0.512 2.112 7.232 7.232 0 0 1-0.448 1.024 7.296 7.296 0 0 1-0.576 0.96 11.84 11.84 0 0 1-1.792 1.984 9.472 9.472 0 0 1-0.448 0.384l-161.856 120a9.728 9.728 0 0 1-5.632 1.92z m0-369.728a8.064 8.064 0 0 0-3.84 0.96L335.232 436.48a7.872 7.872 0 0 0-2.88 2.56 8.256 8.256 0 0 0-1.408 4.608v146.432a8 8 0 0 0 2.56 5.952 8.512 8.512 0 0 0 0.704 0.64l161.92 120a8.512 8.512 0 0 0 3.52 1.472 10.816 10.816 0 0 0 1.92 0.064 10.816 10.816 0 0 0 1.92-0.384 9.856 9.856 0 0 0 1.792-0.832 8.768 8.768 0 0 0 0.512-0.32l161.92-120a8.896 8.896 0 0 0 1.92-2.048 9.664 9.664 0 0 0 0.832-1.728 7.552 7.552 0 0 0 0.512-2.752V443.776a7.872 7.872 0 0 0-0.896-3.712 7.232 7.232 0 0 0-1.28-1.856 9.408 9.408 0 0 0-2.112-1.664l-161.92-85.76a8.064 8.064 0 0 0-3.84-0.896z" fill="#000000" p-id="5106"></path><path d="M510.72 538.24l2.24 174.912c0.064 4.992-4.48 9.216-10.176 9.28-5.696 0.128-10.368-3.904-10.432-8.96l-2.24-174.976a8.768 8.768 0 0 0-3.136-6.4 9.792 9.792 0 0 0-1.344-0.96L312.96 426.624a9.856 9.856 0 0 1-1.92-1.408 7.744 7.744 0 0 1-1.6-2.24 8.32 8.32 0 0 1-0.768-5.504 8 8 0 0 1 1.28-3.008 7.936 7.936 0 0 1 0.512-0.768v-0.064a11.52 11.52 0 0 1 5.312-3.328 11.712 11.712 0 0 1 5.248-0.32 9.92 9.92 0 0 1 2.752 0.96 12.48 12.48 0 0 1 0.896 0.448l171.52 102.144a10.816 10.816 0 0 0 4.352 1.472 10.88 10.88 0 0 0 5.312-0.64 11.328 11.328 0 0 0 2.112-1.024l157.824-102.016a8.768 8.768 0 0 1 1.728-0.896 11.84 11.84 0 0 1 4.224-0.832 10.112 10.112 0 0 1 3.392 0.448 11.776 11.776 0 0 1 1.792 0.768l0.384 0.192 0.448 0.256a16.128 16.128 0 0 1 1.92 1.472l0.32 0.384a8.96 8.96 0 0 1 1.92 3.712l0.064 0.448 0.128 0.512a5.76 5.76 0 0 1 0 0.896 11.52 11.52 0 0 1-0.192 1.92 5.696 5.696 0 0 1-0.256 0.896 10.368 10.368 0 0 1-0.768 1.728 9.408 9.408 0 0 1-1.152 1.472l-0.384 0.32a8.32 8.32 0 0 1-1.472 1.088L515.008 530.624a9.344 9.344 0 0 0-3.2 3.2 10.176 10.176 0 0 0-0.96 2.688 11.136 11.136 0 0 0-0.128 1.728z" fill="#000000" p-id="5107"></path><path d="M502.592 723.072a11.008 11.008 0 0 1-4.992-1.088 10.048 10.048 0 0 1-2.56-1.6 8.192 8.192 0 0 1-1.984-2.24 8.512 8.512 0 0 1-1.152-2.752 9.152 9.152 0 0 1-0.256-1.92l-2.24-174.976a8.96 8.96 0 0 0-0.704-3.008 8.832 8.832 0 0 0-2.176-2.944 7.68 7.68 0 0 0-1.28-0.896L312.64 427.136a9.856 9.856 0 0 1-4.672-6.592 9.088 9.088 0 0 1 2.304-7.68 12.288 12.288 0 0 1 5.76-3.328 11.392 11.392 0 0 1 5.568 0 11.008 11.008 0 0 1 3.392 1.28l171.52 102.208a10.56 10.56 0 0 0 7.04 1.28 10.624 10.624 0 0 0 4.032-1.536l157.824-101.952a9.92 9.92 0 0 1 0.448-0.256l0.448-0.256a15.488 15.488 0 0 1 2.368-0.896 11.84 11.84 0 0 1 9.408 1.344l0.448 0.32a9.856 9.856 0 0 1 1.92 1.664 9.408 9.408 0 0 1 2.176 4.288l0.128 0.96v1.024a8.32 8.32 0 0 1-0.64 2.944 8.832 8.832 0 0 1-1.6 2.688 9.088 9.088 0 0 1-2.304 2.048L515.328 531.2a9.472 9.472 0 0 0-1.984 1.664 8.384 8.384 0 0 0-1.984 5.312l2.24 174.912a9.344 9.344 0 0 1-4.8 8.32 10.624 10.624 0 0 1-3.904 1.472 11.52 11.52 0 0 1-2.112 0.192h-0.192z m-183.68-312.64a10.112 10.112 0 0 0-8.832 4.992 7.616 7.616 0 0 0 0.064 7.488 8.384 8.384 0 0 0 3.2 3.2L485.824 530.56a10.24 10.24 0 0 1 2.752 2.368 10.112 10.112 0 0 1 1.792 3.776 9.088 9.088 0 0 1 0.256 1.792l2.24 174.976a7.808 7.808 0 0 0 2.304 5.312 7.296 7.296 0 0 0 0.96 0.896l0.384 0.256a9.792 9.792 0 0 0 2.944 1.408l0.448 0.128 0.448 0.128h0.512a5.76 5.76 0 0 0 0.896 0.128 11.264 11.264 0 0 0 2.816-0.128l0.448-0.128a11.52 11.52 0 0 0 0.896-0.256l0.448-0.128a10.624 10.624 0 0 0 2.816-1.6l0.384-0.32a10.112 10.112 0 0 0 1.152-1.28 8.512 8.512 0 0 0 1.344-3.072 7.68 7.68 0 0 0 0.192-1.728L510.08 538.24a9.6 9.6 0 0 1 4.608-8.128l162.816-104.512a9.152 9.152 0 0 0 2.048-1.792 8.448 8.448 0 0 0 1.92-4.096 9.152 9.152 0 0 0 0-1.664 6.08 6.08 0 0 0-0.32-1.664 7.04 7.04 0 0 0-1.152-2.24 7.296 7.296 0 0 0-0.512-0.64l-0.32-0.32-0.32-0.32a15.936 15.936 0 0 0-0.32-0.32l-0.384-0.256-0.384-0.256a14.528 14.528 0 0 0-1.152-0.704l-0.448-0.192a6.144 6.144 0 0 0-0.832-0.384 10.432 10.432 0 0 0-7.616 0.256l-0.384 0.192a12.224 12.224 0 0 0-0.384 0.192l-0.448 0.256a9.088 9.088 0 0 0-0.384 0.192L508.288 513.92a11.968 11.968 0 0 1-12.48 0.192l-171.52-102.144a10.432 10.432 0 0 0-5.376-1.472z" fill="#000000" p-id="5108"></path><path d="M502.592 736.576a25.728 25.728 0 0 1-14.592-4.608 25.408 25.408 0 0 1-6.464-6.848 22.272 22.272 0 0 1-3.392-11.456l-2.176-171.776-170.304-103.168a23.552 23.552 0 0 1-10.752-14.656 22.528 22.528 0 0 1 1.92-15.296 22.4 22.4 0 0 1 7.616-8.512 24.832 24.832 0 0 1 19.136-4.16 25.472 25.472 0 0 1 8.32 3.136L501.76 500.48l156.288-100.992a27.968 27.968 0 0 1 7.04-3.2 28.096 28.096 0 0 1 8.896-0.768 24.96 24.96 0 0 1 20.864 15.552 24.128 24.128 0 0 1 1.28 9.536 19.008 19.008 0 0 1-1.408 6.016 24.512 24.512 0 0 1-5.44 8.32 20.992 20.992 0 0 1-3.84 3.072L524.8 541.056l2.24 171.84a21.952 21.952 0 0 1-3.008 11.52 22.016 22.016 0 0 1-6.208 7.04 26.752 26.752 0 0 1-8.128 4.096 25.984 25.984 0 0 1-6.72 0.96h-0.448z" fill="#000000" p-id="5109"></path><path d="M502.528 737.216a26.88 26.88 0 0 1-12.992-3.52 27.52 27.52 0 0 1-7.04-6.208 24.32 24.32 0 0 1-4.48-10.112 23.296 23.296 0 0 1-0.448-3.712l-2.24-171.52L305.28 439.296a24.256 24.256 0 0 1-11.008-15.04 24.96 24.96 0 0 1-0.512-6.144 22.912 22.912 0 0 1 8.512-16.96 26.56 26.56 0 0 1 15.68-6.016 25.28 25.28 0 0 1 14.272 3.584L501.76 499.712l155.968-100.8a28.544 28.544 0 0 1 8.384-3.52 25.664 25.664 0 0 1 29.44 15.488 19.52 19.52 0 0 1 1.152 4.8 20.032 20.032 0 0 1 0.128 4.992 26.88 26.88 0 0 1-1.408 6.208 20.288 20.288 0 0 1-2.304 4.544 19.2 19.2 0 0 1-2.368 3.072 21.696 21.696 0 0 1-4.928 4.096L525.504 541.44l2.24 171.52a22.08 22.08 0 0 1-1.92 9.6 24 24 0 0 1-17.024 13.952 33.664 33.664 0 0 1-4.608 0.64h-1.664z m-183.68-340.928a25.536 25.536 0 0 0-11.648 2.944 24.832 24.832 0 0 0-9.792 9.856 22.272 22.272 0 0 0-1.6 16 21.888 21.888 0 0 0 6.272 10.24 22.336 22.336 0 0 0 3.84 2.816L476.544 541.44v0.384l2.24 171.904a23.168 23.168 0 0 0 3.264 11.072 21.76 21.76 0 0 0 8.128 7.808 24 24 0 0 0 12.352 3.328h0.448a25.472 25.472 0 0 0 12.608-3.712 23.872 23.872 0 0 0 9.408-11.264 21.952 21.952 0 0 0 1.472-8L524.16 540.736l0.32-0.192 160.576-103.04a26.432 26.432 0 0 0 4.608-3.904 20.672 20.672 0 0 0 3.968-6.08 32.64 32.64 0 0 0 1.472-4.608 19.008 19.008 0 0 0 0.256-7.04 18.048 18.048 0 0 0-1.152-4.608 22.464 22.464 0 0 0-12.928-13.312 24.576 24.576 0 0 0-22.912 2.048L501.824 501.184 331.52 399.744a24.32 24.32 0 0 0-12.672-3.456z m179.328 317.056h1.28-1.28z" fill="#000000" p-id="5110"></path><path d="M503.168 954.88c-239.168 0-434.048-194.88-434.048-434.048 0-239.104 194.88-433.92 434.048-433.92 100.992-0.064 193.28 34.752 272.512 95.808a0.896 0.896 0 0 0 0.384 0.128h0.128a0.96 0.96 0 0 0 0.448 0l0.128-0.064 0.128-0.128 0.128-0.064V182.4l0.128-0.128v-0.128l0.064-0.192v-0.128-0.128l-17.152-81.536v-0.192c0-4.48 0-13.12 4.288-17.536l0.192-0.192c4.352-8.768 8.768-13.184 13.184-13.184h4.352c8.832 0 22.144 8.896 22.144 17.728l30.976 159.296V250.688c0 13.248-8.832 22.08-17.664 22.08l-159.36 31.04h-4.48c-8.832 0-22.144-8.896-22.144-17.728 0-4.48 0-13.312 4.48-17.728 4.416-4.48 8.768-8.832 13.248-8.832l113.28-21.824 0.256-0.128a1.024 1.024 0 0 0 0.192-0.128 0.96 0.96 0 0 0 0.192-0.192l0.128-0.256a0.96 0.96 0 0 0 0-0.512 0.832 0.832 0 0 0-0.32-0.448c-83.2-77.312-196.672-112.064-311.872-97.28-176.128 22.848-313.088 164.864-331.2 341.504a385.6 385.6 0 0 0 359.488 425.152c222.208 13.568 409.088-165.056 408.96-387.584 0-22.528-0.064-41.856-3.136-60.864-0.768-4.8-2.24-11.264-3.2-16.128a48.768 48.768 0 0 1-1.216-10.24 11.2 11.2 0 0 1 1.28-4.096c1.152-2.24 5.504-10.24 19.584-11.84h4.416c13.248 0 21.12 9.6 26.56 26.368v0.192c4.352 11.264 8.768 45.696 8.832 79.616 0.192 239.168-199.296 433.984-438.4 433.984z" fill="#000000" p-id="5111"></path><path d="M503.168 960A439.68 439.68 0 0 1 64 520.832a439.68 439.68 0 0 1 513.28-432.768 431.68 431.68 0 0 1 119.424 39.168 470.528 470.528 0 0 1 73.152 44.672l-14.848-70.656a6.208 6.208 0 0 1-0.128-1.28c0-4.8 0-14.592 5.312-20.544 5.312-10.432 11.072-15.424 17.536-15.424h4.352c10.624 0 26.816 9.92 27.264 22.272l30.912 158.912a5.952 5.952 0 0 1 0.128 1.216v4.288c0 14.848-9.984 27.008-22.336 27.328l-158.848 30.848a6.08 6.08 0 0 1-1.152 0.128h-4.352c-10.752 0-27.264-10.24-27.264-22.848 0-4.992 0-15.36 5.952-21.376 4.928-4.928 10.048-10.048 16.32-10.304l104.704-20.16c-80.96-71.68-190.4-104.576-301.632-90.24a383.424 383.424 0 0 0-76.736 18.304 382.336 382.336 0 0 0-84.48 42.432 382.208 382.208 0 0 0-65.984 56.32 380.672 380.672 0 0 0-99.52 219.648 377.856 377.856 0 0 0 113.984 313.408 374.784 374.784 0 0 0 67.136 51.776 369.024 369.024 0 0 0 51.072 25.984 378.56 378.56 0 0 0 241.92 16.64 377.024 377.024 0 0 0 170.24-97.728 372.032 372.032 0 0 0 38.528-44.352 367.872 367.872 0 0 0 26.56-41.088 373.056 373.056 0 0 0 24.704-53.312 384.96 384.96 0 0 0 24.128-134.336c0-23.808-0.256-42.048-3.2-60.032-0.512-3.328-1.408-7.616-2.176-11.392l-0.96-4.48a46.656 46.656 0 0 1-1.152-9.344l-0.128-1.6a13.44 13.44 0 0 1 1.92-6.72c4.224-8.32 12.352-13.376 23.488-14.656h5.056c19.456 0 27.264 17.088 31.36 29.952l0.128 0.32c4.992 13.44 8.96 49.6 8.96 81.088 0.128 115.456-45.44 224.768-128.384 307.84a427.52 427.52 0 0 1-40.32 35.84 445.312 445.312 0 0 1-122.368 68.288 462.144 462.144 0 0 1-53.248 15.872 448.576 448.576 0 0 1-76.928 10.752 428.672 428.672 0 0 1-22.208 0.512z m0-868.032A429.376 429.376 0 0 0 74.24 520.832a429.376 429.376 0 0 0 635.776 376.128 391.168 391.168 0 0 0 27.2-16.064 425.024 425.024 0 0 0 58.432-44.8 431.104 431.104 0 0 0 15.232-14.592c81.024-81.152 125.568-187.904 125.44-300.608 0-33.408-4.416-67.2-8.448-77.76l-0.256-0.64c-6.528-20.096-14.912-22.656-21.504-22.656h-4.16c-5.248 0.64-12.032 2.752-15.232 9.088a13.12 13.12 0 0 0-0.768 1.792l0.064 1.28c0 2.688 0.384 5.312 1.024 7.936l0.896 4.352c0.832 3.84 1.792 8.32 2.368 11.904 3.008 18.752 3.2 37.376 3.2 61.696a400.384 400.384 0 0 1-10.048 88.832 388.992 388.992 0 0 1-29.824 84.224 399.552 399.552 0 0 1-57.728 86.784 399.936 399.936 0 0 1-78.4 68.672 402.88 402.88 0 0 1-65.728 35.2 385.024 385.024 0 0 1-61.952 19.84 366.784 366.784 0 0 1-49.536 8.064 373.952 373.952 0 0 1-30.08 1.728 403.904 403.904 0 0 1-70.016-4.992 398.272 398.272 0 0 1-67.968-17.408 377.92 377.92 0 0 1-63.104-29.056 384.704 384.704 0 0 1-70.208-51.52 373.504 373.504 0 0 1-33.536-34.944 388.288 388.288 0 0 1-85.888-325.76 392.512 392.512 0 0 1 108.8-205.056 391.808 391.808 0 0 1 63.168-50.752 394.24 394.24 0 0 1 64.896-33.408 387.84 387.84 0 0 1 94.08-24.512c117.12-15.04 232.32 20.864 316.032 98.56a6.4 6.4 0 0 1 1.792 3.2 8.896 8.896 0 0 1 0.128 0.896V237.696l-0.128 0.448a8.448 8.448 0 0 1-0.384 1.152 4.48 4.48 0 0 1-0.384 0.768 7.616 7.616 0 0 1-0.768 1.024l-0.32 0.256-0.32 0.256a5.632 5.632 0 0 1-0.32 0.256l-0.32 0.256a5.44 5.44 0 0 1-1.6 0.64 5.888 5.888 0 0 1-0.384 0.064l-113.792 21.888h-0.448c-2.304 0-6.592 4.224-9.664 7.296-3.072 3.136-2.944 10.752-2.944 14.144 0 5.12 10.048 12.608 17.024 12.608h3.904l159.488-31.04h0.448c6.08 0 12.608-6.848 12.608-16.96v-3.968l-30.976-159.424v-0.512c0-5.12-9.984-12.608-17.024-12.608h-4.48c-1.536 0-4.736 2.752-8.576 10.304l-0.704 1.088-0.384 0.384c-2.752 2.88-2.88 10.048-2.88 13.504l17.088 81.088a5.568 5.568 0 0 1 0.128 0.896v0.96l-0.064 0.448a5.44 5.44 0 0 1-0.64 1.728 8.768 8.768 0 0 1-0.704 1.152 7.232 7.232 0 0 1-0.32 0.384l-0.384 0.32a6.016 6.016 0 0 1-3.84 1.472 5.504 5.504 0 0 1-1.792-0.256 5.376 5.376 0 0 1-1.28-0.512 6.208 6.208 0 0 1-0.768-0.512 465.28 465.28 0 0 0-144-75.776 421.952 421.952 0 0 0-125.44-18.944z m434.304 347.328v0.128-0.128z" fill="#000000" p-id="5112"></path></svg>