<svg t="1770114168246" class="icon" viewBox="0 0 1024 1024" version="1.1" xmlns="http://www.w3.org/2000/svg" p-id="5374" width="64" height="64"><path d="M761.330283 271.863399a97.295511 97.295511 0 0 1-51.044891-12.972735 117.882677 117.882677 0 0 1-36.098044-32.713853 143.264115 143.264115 0 0 1-20.305151-44.276508 166.953456 166.953456 0 0 1-6.486367-45.404572V0.564032H230.858237a93.065271 93.065271 0 0 0-47.942715 13.536767 164.697329 164.697329 0 0 0-40.892317 34.405948 169.209584 169.209584 0 0 0-28.201597 45.404572A121.266869 121.266869 0 0 0 102.258953 141.572019v741.419994a105.191958 105.191958 0 0 0 14.100799 52.454971 183.028367 183.028367 0 0 0 35.534013 44.84054 187.258606 187.258606 0 0 0 45.968603 31.585789 104.063894 104.063894 0 0 0 45.404572 12.126687h535.83035a134.803635 134.803635 0 0 0 49.070779-9.870559 163.287249 163.287249 0 0 0 45.968604-28.201597 130.855412 130.855412 0 0 0 33.559901-41.738365 125.215092 125.215092 0 0 0 12.408702-56.403194V271.863399z m-248.456072 528.497934a206.999725 206.999725 0 1 1 122.676948-373.389149v-28.201597a29.611677 29.611677 0 0 1 59.223355 0v103.781878a28.201597 28.201597 0 0 1-28.201598 28.201597H561.94499a29.611677 29.611677 0 1 1 0-59.223354h35.534013a147.77637 147.77637 0 1 0 60.91545 149.468466 29.527072 29.527072 0 0 1 58.095291 10.716607 206.717709 206.717709 0 0 1-203.615533 168.645552z" p-id="5375" fill="#000000"></path><path d="M833.526373 73.324153c19.459102 18.331038 35.251997 33.277885 46.814651 45.404572a350.827871 350.827871 0 0 1 27.35555 30.457725 66.273754 66.273754 0 0 1 11.562655 21.433214 63.73561 63.73561 0 0 1 2.256127 15.228863v17.48499H759.356172a25.94547 25.94547 0 0 1-19.177087-8.178463 72.760121 72.760121 0 0 1-13.536766-19.177086 102.93583 102.93583 0 0 1-8.178464-22.279262 78.682457 78.682457 0 0 1-2.538143-18.049023V0.564032h3.384191a65.991738 65.991738 0 0 1 18.049023 2.538144 90.527128 90.527128 0 0 1 21.433214 10.434591c7.896447 5.076288 18.049022 12.408703 29.893693 21.71523s26.791517 22.279262 45.122556 38.354172z" p-id="5376" fill="#000000"></path></svg>